<svg id="Layer_1" data-name="Layer 1" xmlns="http://www.w3.org/2000/svg" viewBox="0 0 607.64 160.24"><defs><style>.cls-1{fill:#ee4137;}</style></defs><title>Artboard 3</title><rect class="cls-1" y="107.21" width="607.07" height="33.93"/><polygon points="116.32 19.03 129.16 31.87 145.09 15.94 129.16 0 116.14 13.01 103.31 0.18 87.37 16.11 103.31 32.05 116.32 19.03"/><path d="M218.33,40,203.81,54.18l13.64,24.08-60.76.56c-77.21,0-130.49,1.11-154.9-8L0,77.76l36.35,34.87c14.17,4.55,48.42,6.19,101.56,5.85l78.08-.56,9-19.3L226.12,73a85.88,85.88,0,0,0-1.59-15.23q-2.13-11.86-6.2-17.7"/><polygon points="263.39 0 244.33 15.76 246.99 121.81 262.84 121.46 263.39 0"/><path d="M306.35,50.51,284.64,70.65,305,109.6q-3.37,11-16.82,19.65a73.13,73.13,0,0,1-30.28,11.16l.53,5.31,40.72,14.52q9-9.93,13.64-25.85a114.63,114.63,0,0,0,4.6-33.29,131.73,131.73,0,0,0-2.83-27.44,96,96,0,0,0-8.21-23.15"/><path d="M306.24,50.28c0,.08.07.16.11.23l.24-.23Z"/><path d="M445.93,40.19Q430.7,53.83,419.55,78.26H353.86L352.09,0,350,.53,336.16,15.76l6.2,102.16h69.22l4.78-10.62,48.52,17.35,18.77-39.31q0-13.45-11.16-27.27a52.68,52.68,0,0,0-26.56-17.88m-20,35.94q26.55-12.57,36.65,12.75Z"/><path d="M562.26,57.37l-.18-7.62a93.52,93.52,0,0,1-.35-10.44V32.22l6.9-2.12-.35-6.2a38.37,38.37,0,0,1-2.66-8.67,50.61,50.61,0,0,1-1.77-11.87L562.08,2.3,543.67,18.06q-.18-.18-.18,2,0,3.36,6.2,9l-.53,25.32q-37.32-28.7-46.46-38.31L491.61,34.88a6.28,6.28,0,0,0-.7,1.77c0,1.42,1.35,2.89,4.07,4.43a79,79,0,0,0,7.79,3.36q5.66,2.13,6,3l4.42-6.9,27.45,17-41.08,19.3v41.08h60.55l9.92-33.11V75.07a8.35,8.35,0,0,1-.71-.88,34,34,0,0,1-7.08-16.82M518,78.26l28.86-13.63L565.27,77.9Z"/><path d="M528.26,137.57l4.61-12.39q-7.62-6.92-16.82-6.91a7,7,0,0,0-4.25,1.6,69.35,69.35,0,0,0-5,6.72q-4.08,6.56-4.07,10.45a17.61,17.61,0,0,0,3.36,9.92l-7.08,7.26,1.42,3.18,30.8-6,5.14-14.16-.71-1.06Zm-5,.89q-12.4,2.29-15.23-5.31a10.28,10.28,0,0,1,4.43-.71,17.23,17.23,0,0,1,13.1,5.66Z"/><path d="M502.59,15.94a1.14,1.14,0,0,1,.11.11l.07-.11Z"/><polygon points="588.58 15.76 591.24 121.81 607.09 121.46 607.64 0 588.58 15.76"/></svg>